<mxfile host="app.diagrams.net" modified="2024-03-10T21:00:19.423Z" agent="Mozilla/5.0 (Windows NT 10.0; Win64; x64) AppleWebKit/537.36 (KHTML, like Gecko) Chrome/121.0.0.0 Safari/537.36 OPR/107.0.0.0" etag="lHIa8TH6OY4T09YpsX9c" version="24.0.4" type="google">
  <diagram id="kgpKYQtTHZ0yAKxKKP6v" name="Page-1">
    <mxGraphModel grid="1" page="1" gridSize="10" guides="1" tooltips="1" connect="1" arrows="1" fold="1" pageScale="1" pageWidth="850" pageHeight="1100" math="0" shadow="0">
      <root>
        <mxCell id="0" />
        <mxCell id="1" parent="0" />
        <mxCell id="PBwjPcmHuXbGxSfvPWQs-1" value="Inicio" style="ellipse;whiteSpace=wrap;html=1;fontStyle=1" vertex="1" parent="1">
          <mxGeometry x="305" y="80" width="120" height="80" as="geometry" />
        </mxCell>
        <mxCell id="PBwjPcmHuXbGxSfvPWQs-8" value="" style="edgeStyle=orthogonalEdgeStyle;rounded=0;orthogonalLoop=1;jettySize=auto;html=1;fontStyle=1" edge="1" parent="1" source="PBwjPcmHuXbGxSfvPWQs-2" target="PBwjPcmHuXbGxSfvPWQs-4">
          <mxGeometry relative="1" as="geometry" />
        </mxCell>
        <mxCell id="PBwjPcmHuXbGxSfvPWQs-2" value="Entrada da idade do&amp;nbsp;&lt;br&gt;&lt;div&gt;usuário.&lt;/div&gt;" style="shape=parallelogram;perimeter=parallelogramPerimeter;whiteSpace=wrap;html=1;fixedSize=1;fontStyle=1" vertex="1" parent="1">
          <mxGeometry x="280" y="220" width="170" height="80" as="geometry" />
        </mxCell>
        <mxCell id="PBwjPcmHuXbGxSfvPWQs-7" value="" style="edgeStyle=orthogonalEdgeStyle;rounded=0;orthogonalLoop=1;jettySize=auto;html=1;exitX=0.5;exitY=1;exitDx=0;exitDy=0;fontStyle=1" edge="1" parent="1" source="PBwjPcmHuXbGxSfvPWQs-1" target="PBwjPcmHuXbGxSfvPWQs-2">
          <mxGeometry relative="1" as="geometry">
            <mxPoint x="355" y="150" as="sourcePoint" />
          </mxGeometry>
        </mxCell>
        <mxCell id="PBwjPcmHuXbGxSfvPWQs-9" value="" style="edgeStyle=orthogonalEdgeStyle;rounded=0;orthogonalLoop=1;jettySize=auto;html=1;exitX=0.5;exitY=1;exitDx=0;exitDy=0;fontStyle=1" edge="1" parent="1" source="PBwjPcmHuXbGxSfvPWQs-4" target="PBwjPcmHuXbGxSfvPWQs-5">
          <mxGeometry relative="1" as="geometry">
            <mxPoint x="375" y="610" as="sourcePoint" />
          </mxGeometry>
        </mxCell>
        <mxCell id="PBwjPcmHuXbGxSfvPWQs-4" value="Saída do valor em dólar&amp;nbsp;&lt;div&gt;já convertido para o real.&lt;/div&gt;" style="shape=parallelogram;perimeter=parallelogramPerimeter;whiteSpace=wrap;html=1;fixedSize=1;fontStyle=1" vertex="1" parent="1">
          <mxGeometry x="280" y="530" width="170" height="80" as="geometry" />
        </mxCell>
        <mxCell id="PBwjPcmHuXbGxSfvPWQs-5" value="Fim" style="ellipse;whiteSpace=wrap;html=1;fontStyle=1" vertex="1" parent="1">
          <mxGeometry x="305" y="660" width="120" height="80" as="geometry" />
        </mxCell>
        <mxCell id="PBwjPcmHuXbGxSfvPWQs-10" value="&lt;div&gt;Multiplicação da idade do&lt;/div&gt;&lt;div&gt;usuário pela quantidade de&amp;nbsp;&lt;/div&gt;&lt;div&gt;dias em um ano.&lt;/div&gt;" style="rounded=0;whiteSpace=wrap;html=1;fontStyle=1" vertex="1" parent="1">
          <mxGeometry x="275" y="380" width="175" height="90" as="geometry" />
        </mxCell>
      </root>
    </mxGraphModel>
  </diagram>
</mxfile>
